<svg xmlns="http://www.w3.org/2000/svg" viewBox="0 0 200 240" width="200" height="240">
  <!-- White background -->
  <rect width="200" height="240" fill="white"/>
  
  <!-- QR Code pattern (simplified but functional looking) -->
  <g transform="translate(20, 20)">
    <!-- Top-left position marker -->
    <rect x="0" y="0" width="28" height="28" fill="black"/>
    <rect x="4" y="4" width="20" height="20" fill="white"/>
    <rect x="8" y="8" width="12" height="12" fill="black"/>
    
    <!-- Top-right position marker -->
    <rect x="132" y="0" width="28" height="28" fill="black"/>
    <rect x="136" y="4" width="20" height="20" fill="white"/>
    <rect x="140" y="8" width="12" height="12" fill="black"/>
    
    <!-- Bottom-left position marker -->
    <rect x="0" y="132" width="28" height="28" fill="black"/>
    <rect x="4" y="136" width="20" height="20" fill="white"/>
    <rect x="8" y="140" width="12" height="12" fill="black"/>
    
    <!-- Data pattern (simplified QR code modules) -->
    <rect x="36" y="0" width="4" height="4" fill="black"/>
    <rect x="44" y="0" width="4" height="4" fill="black"/>
    <rect x="52" y="0" width="4" height="4" fill="black"/>
    <rect x="68" y="0" width="4" height="4" fill="black"/>
    <rect x="76" y="0" width="4" height="4" fill="black"/>
    <rect x="92" y="0" width="4" height="4" fill="black"/>
    <rect x="100" y="0" width="4" height="4" fill="black"/>
    <rect x="116" y="0" width="4" height="4" fill="black"/>
    
    <rect x="36" y="8" width="4" height="4" fill="black"/>
    <rect x="52" y="8" width="4" height="4" fill="black"/>
    <rect x="60" y="8" width="4" height="4" fill="black"/>
    <rect x="84" y="8" width="4" height="4" fill="black"/>
    <rect x="100" y="8" width="4" height="4" fill="black"/>
    <rect x="108" y="8" width="4" height="4" fill="black"/>
    
    <!-- More data modules -->
    <rect x="0" y="36" width="4" height="4" fill="black"/>
    <rect x="12" y="36" width="4" height="4" fill="black"/>
    <rect x="24" y="36" width="4" height="4" fill="black"/>
    <rect x="36" y="36" width="4" height="4" fill="black"/>
    <rect x="52" y="36" width="4" height="4" fill="black"/>
    <rect x="68" y="36" width="4" height="4" fill="black"/>
    <rect x="84" y="36" width="4" height="4" fill="black"/>
    <rect x="100" y="36" width="4" height="4" fill="black"/>
    <rect x="116" y="36" width="4" height="4" fill="black"/>
    <rect x="132" y="36" width="4" height="4" fill="black"/>
    <rect x="148" y="36" width="4" height="4" fill="black"/>
    <rect x="156" y="36" width="4" height="4" fill="black"/>
    
    <!-- Additional pattern blocks -->
    <rect x="40" y="44" width="4" height="4" fill="black"/>
    <rect x="56" y="44" width="4" height="4" fill="black"/>
    <rect x="72" y="44" width="4" height="4" fill="black"/>
    <rect x="96" y="44" width="4" height="4" fill="black"/>
    <rect x="112" y="44" width="4" height="4" fill="black"/>
    
    <!-- Continue pattern -->
    <rect x="8" y="52" width="4" height="4" fill="black"/>
    <rect x="28" y="52" width="4" height="4" fill="black"/>
    <rect x="44" y="52" width="4" height="4" fill="black"/>
    <rect x="68" y="52" width="4" height="4" fill="black"/>
    <rect x="92" y="52" width="4" height="4" fill="black"/>
    <rect x="108" y="52" width="4" height="4" fill="black"/>
    <rect x="124" y="52" width="4" height="4" fill="black"/>
    <rect x="148" y="52" width="4" height="4" fill="black"/>
    
    <!-- Central area pattern -->
    <rect x="36" y="68" width="4" height="4" fill="black"/>
    <rect x="52" y="68" width="4" height="4" fill="black"/>
    <rect x="76" y="68" width="4" height="4" fill="black"/>
    <rect x="100" y="68" width="4" height="4" fill="black"/>
    <rect x="124" y="68" width="4" height="4" fill="black"/>
    
    <rect x="12" y="76" width="4" height="4" fill="black"/>
    <rect x="32" y="76" width="4" height="4" fill="black"/>
    <rect x="60" y="76" width="4" height="4" fill="black"/>
    <rect x="88" y="76" width="4" height="4" fill="black"/>
    <rect x="116" y="76" width="4" height="4" fill="black"/>
    <rect x="140" y="76" width="4" height="4" fill="black"/>
    
    <!-- More scattered modules for realistic look -->
    <rect x="20" y="92" width="4" height="4" fill="black"/>
    <rect x="48" y="92" width="4" height="4" fill="black"/>
    <rect x="72" y="92" width="4" height="4" fill="black"/>
    <rect x="104" y="92" width="4" height="4" fill="black"/>
    <rect x="132" y="92" width="4" height="4" fill="black"/>
    <rect x="156" y="92" width="4" height="4" fill="black"/>
    
    <rect x="8" y="108" width="4" height="4" fill="black"/>
    <rect x="36" y="108" width="4" height="4" fill="black"/>
    <rect x="64" y="108" width="4" height="4" fill="black"/>
    <rect x="92" y="108" width="4" height="4" fill="black"/>
    <rect x="120" y="108" width="4" height="4" fill="black"/>
    <rect x="148" y="108" width="4" height="4" fill="black"/>
    
    <!-- Bottom pattern -->
    <rect x="36" y="132" width="4" height="4" fill="black"/>
    <rect x="48" y="132" width="4" height="4" fill="black"/>
    <rect x="68" y="132" width="4" height="4" fill="black"/>
    <rect x="84" y="132" width="4" height="4" fill="black"/>
    <rect x="108" y="132" width="4" height="4" fill="black"/>
    <rect x="132" y="132" width="4" height="4" fill="black"/>
    <rect x="152" y="132" width="4" height="4" fill="black"/>
    
    <rect x="36" y="148" width="4" height="4" fill="black"/>
    <rect x="56" y="148" width="4" height="4" fill="black"/>
    <rect x="76" y="148" width="4" height="4" fill="black"/>
    <rect x="96" y="148" width="4" height="4" fill="black"/>
    <rect x="120" y="148" width="4" height="4" fill="black"/>
    <rect x="144" y="148" width="4" height="4" fill="black"/>
  </g>
  
  <!-- OMIX Logo in center (simplified) -->
  <g transform="translate(100, 100)">
    <rect x="-20" y="-12" width="40" height="24" fill="white" stroke="black" stroke-width="1"/>
    <path d="M -15 -6 L -10 2 L -15 2 L -10 -6 Z M -6 -6 L -2 2 L -6 2 L -2 -6 Z" fill="#c41e3a"/>
    <text x="2" y="3" font-family="Arial, sans-serif" font-size="10" font-weight="bold" fill="black">MIX</text>
  </g>
  
  <!-- Bottom text -->
  <text x="100" y="220" font-family="Arial, sans-serif" font-size="11" fill="#666" text-anchor="middle">ETBİS'e Kayıtlıdır</text>
</svg>
